<svg width="20" height="20" viewBox="0 0 20 20" fill="none" xmlns="http://www.w3.org/2000/svg">
<path d="M11.9334 15.8917C11.9334 16.4 11.6001 17.0667 11.1751 17.325L10.0001 18.0834C8.90842 18.7584 7.39175 18 7.39175 16.65V12.1917C7.39175 11.6 7.05842 10.8417 6.71676 10.425L3.51673 7.05837C3.09173 6.63337 2.75842 5.88338 2.75842 5.37505V3.44171C2.75842 2.43338 3.51677 1.67505 4.44177 1.67505H15.5584C16.4834 1.67505 17.2418 2.43337 17.2418 3.35837V5.20837C17.2418 5.88337 16.8168 6.72505 16.4001 7.14171" stroke="white" stroke-width="1.25" stroke-miterlimit="10" stroke-linecap="round" stroke-linejoin="round"/>
<path d="M13.3917 13.7667C14.8644 13.7667 16.0583 12.5728 16.0583 11.1C16.0583 9.62727 14.8644 8.43335 13.3917 8.43335C11.9189 8.43335 10.725 9.62727 10.725 11.1C10.725 12.5728 11.9189 13.7667 13.3917 13.7667Z" stroke="white" stroke-width="1.25" stroke-linecap="round" stroke-linejoin="round"/>
<path d="M16.5583 14.2667L15.725 13.4333" stroke="white" stroke-width="1.25" stroke-linecap="round" stroke-linejoin="round"/>
</svg>
