<svg width="140" height="140" viewBox="0 0 140 140" fill="none" xmlns="http://www.w3.org/2000/svg">
<rect width="140" height="140" rx="70" fill="#4A90E2" fill-opacity="0.1"/>
<path d="M73.6367 107.73C73.1684 109.205 71.7806 110.284 70.1572 110.284C68.534 110.283 67.1469 109.205 66.6786 107.73H73.6367Z" stroke="#4A90E2" stroke-width="2.1875"/>
<path d="M70.1573 41.3459C82.7293 41.3459 92.7725 50.3489 92.7726 61.1155C92.7726 63.9028 91.8407 66.8122 90.3781 69.8245C88.9157 72.8361 86.9685 75.8628 85.006 78.8958L85.0011 78.9026C81.9014 83.7736 78.7494 88.6555 77.5695 93.6877H62.6271C61.6033 89.3217 59.0957 85.0688 56.4249 80.8381L55.1954 78.9026C53.29 75.8658 51.3736 72.8415 49.9249 69.8284C48.4755 66.8135 47.5431 63.9035 47.5431 61.1155C47.5432 50.3491 57.5856 41.3462 70.1573 41.3459Z" stroke="#4A90E2" stroke-width="2.1875"/>
<path d="M63.7211 78.0902C63.8361 78.7799 64.066 79.4697 64.1809 80.1594C64.5258 81.4238 64.7557 82.5733 65.1005 83.8378C66.1351 88.2059 67.0547 91.8843 67.8593 94.758H68.549C67.9743 91.8843 67.1696 88.0909 66.1351 83.7228C65.9052 82.5733 65.5603 81.3089 65.3304 80.0444C65.2155 79.4697 65.1005 78.78 64.8706 78.2052C65.7902 77.9753 67.9743 77.2856 70.1583 74.8716C72.3424 77.2856 74.5264 77.9753 75.446 78.2052C75.3311 78.8949 75.2161 79.4697 74.9862 80.0444C74.7563 81.3089 74.4115 82.5733 74.1816 83.7228C73.147 88.0909 72.3424 91.8843 71.7676 94.758H72.4573C73.147 91.8843 74.1816 88.2059 75.2161 83.8378C75.446 82.6883 75.7909 81.4238 76.1357 80.1594C76.2507 79.4697 76.4806 78.7799 76.5955 78.0902C77.5151 77.9753 78.3198 77.7454 78.8945 77.1706C79.5842 76.4809 79.9291 75.6763 79.6992 74.7567C79.5842 74.2969 79.3544 73.7221 78.6646 73.6072C78.3198 73.4922 78.0899 73.4922 77.745 73.6072C77.4002 73.7221 77.1703 73.952 77.0553 74.067C76.4806 74.7567 76.2507 75.4464 76.0208 76.1361L75.6759 77.1706C75.6759 77.1706 74.7563 77.2856 72.5723 75.7912C71.4228 74.9866 71.0779 74.4118 70.7331 74.067C71.0779 73.6072 71.4228 73.2623 71.7676 72.6876C71.8826 72.3427 71.9975 72.1128 72.1125 71.653C72.1125 71.3082 72.1125 70.8484 71.8826 70.5035C71.6527 70.1587 71.4228 69.8138 70.848 69.5839C70.6181 69.469 70.3882 69.469 70.1583 69.469C69.9284 69.469 69.6985 69.469 69.4686 69.5839C69.0088 69.8138 68.664 70.1587 68.4341 70.5035C68.2042 70.8484 68.2042 71.3082 68.2042 71.653C68.2042 71.9979 68.3191 72.3427 68.549 72.6876C68.7789 73.2623 69.1238 73.7221 69.5836 74.067C69.2387 74.4118 68.8939 74.9866 67.7444 75.7912C65.6753 77.1707 64.6407 77.1706 64.6407 77.1706L64.2959 76.1361C64.066 75.4464 63.8361 74.7567 63.2613 74.067C63.1464 73.952 62.9165 73.7221 62.5716 73.6072C62.2268 73.4922 61.8819 73.4922 61.652 73.6072C60.9623 73.8371 60.7324 74.4118 60.6175 74.7567C60.5025 75.6763 60.8474 76.4809 61.4221 77.1706C62.1118 77.7454 62.9165 77.9753 63.7211 78.0902ZM77.0553 76.366C77.2852 75.7912 77.5151 75.1015 77.9749 74.7567C78.0899 74.6417 78.2048 74.6417 78.2048 74.6417H78.4347C78.5497 74.6417 78.6646 74.7567 78.7796 75.1015C78.8945 75.5613 78.6646 76.251 78.2048 76.5959C77.86 76.8258 77.4002 77.0557 76.9404 77.1706C76.9404 76.8258 76.9404 76.5959 77.0553 76.366ZM69.4686 70.8484C69.6985 70.6185 69.9284 70.3886 70.1583 70.3886C70.3882 70.3886 70.6181 70.5035 70.848 70.8484C71.0779 71.1932 70.963 71.653 70.7331 72.1128C70.6181 72.4577 70.3882 72.8025 70.1583 73.0324C69.9284 72.6876 69.6985 72.4577 69.5836 72.1128C69.3537 71.768 69.2387 71.3082 69.4686 70.8484ZM61.652 74.8716C61.652 74.6417 61.767 74.5268 61.9969 74.4118H62.2268C62.2268 74.4118 62.3417 74.5268 62.4567 74.5268C62.8015 74.8716 63.1464 75.5613 63.3763 76.1361C63.4912 76.366 63.4912 76.5959 63.6062 76.8258C63.1464 76.7108 62.6866 76.5959 62.3417 76.251C61.8819 76.0211 61.652 75.4464 61.652 74.8716Z" fill="#4A90E2"/>
<mask id="path-5-inside-1_103_2248" fill="white">
<path d="M61.741 97.1523H78.6926V99.2861H61.741V97.1523ZM62.9265 101.42H77.5072V103.554H62.9265V101.42Z"/>
</mask>
<path d="M61.741 97.1523V94.9648H59.5535V97.1523H61.741ZM78.6926 97.1523H80.8801V94.9648H78.6926V97.1523ZM78.6926 99.2861V101.474H80.8801V99.2861H78.6926ZM61.741 99.2861H59.5535V101.474H61.741V99.2861ZM62.9265 101.42V99.2324H60.739V101.42H62.9265ZM77.5072 101.42H79.6947V99.2324H77.5072V101.42ZM77.5072 103.554V105.741H79.6947V103.554H77.5072ZM62.9265 103.554H60.739V105.741H62.9265V103.554ZM61.741 97.1523V99.3398H78.6926V97.1523V94.9648H61.741V97.1523ZM78.6926 97.1523H76.5051V99.2861H78.6926H80.8801V97.1523H78.6926ZM78.6926 99.2861V97.0986H61.741V99.2861V101.474H78.6926V99.2861ZM61.741 99.2861H63.9285V97.1523H61.741H59.5535V99.2861H61.741ZM62.9265 101.42V103.607H77.5072V101.42V99.2324H62.9265V101.42ZM77.5072 101.42H75.3197V103.554H77.5072H79.6947V101.42H77.5072ZM77.5072 103.554V101.366H62.9265V103.554V105.741H77.5072V103.554ZM62.9265 103.554H65.114V101.42H62.9265H60.739V103.554H62.9265Z" fill="#4A90E2" mask="url(#path-5-inside-1_103_2248)"/>
<mask id="path-7-inside-2_103_2248" fill="white">
<path d="M62.9268 99.2864H77.5075V101.42H62.9268V99.2864Z"/>
</mask>
<path d="M62.9268 99.2864V97.0989H60.7393V99.2864H62.9268ZM77.5075 99.2864H79.695V97.0989H77.5075V99.2864ZM77.5075 101.42V103.608H79.695V101.42H77.5075ZM62.9268 101.42H60.7393V103.608H62.9268V101.42ZM62.9268 99.2864V101.474H77.5075V99.2864V97.0989H62.9268V99.2864ZM77.5075 99.2864H75.32V101.42H77.5075H79.695V99.2864H77.5075ZM77.5075 101.42V99.2326H62.9268V101.42V103.608H77.5075V101.42ZM62.9268 101.42H65.1143V99.2864H62.9268H60.7393V101.42H62.9268Z" fill="#4A90E2" mask="url(#path-7-inside-2_103_2248)"/>
<mask id="path-9-inside-3_103_2248" fill="white">
<path d="M64.1114 103.672H76.3212V105.806H64.1114V103.672Z"/>
</mask>
<path d="M64.1114 103.672V101.485H61.9239V103.672H64.1114ZM76.3212 103.672H78.5087V101.485H76.3212V103.672ZM76.3212 105.806V107.993H78.5087V105.806H76.3212ZM64.1114 105.806H61.9239V107.993H64.1114V105.806ZM64.1114 103.672V105.86H76.3212V103.672V101.485H64.1114V103.672ZM76.3212 103.672H74.1337V105.806H76.3212H78.5087V103.672H76.3212ZM76.3212 105.806V103.618H64.1114V105.806V107.993H76.3212V105.806ZM64.1114 105.806H66.2989V103.672H64.1114H61.9239V105.806H64.1114Z" fill="#4A90E2" mask="url(#path-9-inside-3_103_2248)"/>
<path d="M60.625 56.6748C60.7357 56.5246 60.8009 56.5602 60.8206 56.7814C60.8325 56.9355 60.8898 57.4137 60.9925 58.2158C61.0953 59.014 61.1545 59.4862 61.1703 59.6324C61.2336 60.2804 61.3719 60.6716 61.5852 60.806C61.7117 60.885 61.8895 60.9205 62.1187 60.9126C62.2609 60.9087 62.3419 60.9936 62.3617 61.1675C62.3854 61.3414 62.3696 61.5231 62.3143 61.7128C62.2589 61.9025 62.1937 62.0013 62.1187 62.0092C61.6564 62.0487 61.3165 61.9341 61.0992 61.6654C60.8858 61.3967 60.7357 60.9146 60.6487 60.2192C60.4156 60.6578 60.1805 60.9245 59.9434 61.0193C59.7814 61.0825 59.5345 61.0865 59.2025 61.0312C58.8746 60.9719 58.6355 60.883 58.4854 60.7645C58.3352 60.6459 58.272 60.5037 58.2957 60.3377C58.3194 60.1678 58.3964 59.9485 58.5268 59.6798C58.6572 59.4072 58.762 59.2313 58.841 59.1523C59.2717 58.7453 59.7814 58.3818 60.3702 58.0617C60.3465 57.7298 60.3326 57.4848 60.3287 57.3267C60.3287 57.1647 60.3662 57.0324 60.4413 56.9296L60.625 56.6748ZM60.4532 58.8026C59.8249 58.9804 59.3724 59.253 59.0958 59.6205C59.0603 59.6719 59.0702 59.7134 59.1255 59.745C59.4574 59.907 59.896 59.9287 60.4413 59.8102C60.4887 59.7983 60.5342 59.7707 60.5776 59.7272C60.55 59.4704 60.5085 59.1622 60.4532 58.8026ZM59.6411 54.5054C59.6609 54.4738 59.6945 54.4659 59.7419 54.4817C60.062 54.5924 60.3484 54.7603 60.6013 54.9855C60.6369 55.0171 60.6428 55.0527 60.6191 55.0922L60.0383 56.0109C60.0145 56.0465 59.975 56.0406 59.9197 55.9931C59.8683 55.9497 59.6392 55.8054 59.2322 55.5605L58.7758 56.2836C58.7521 56.3191 58.7106 56.3132 58.6513 56.2658C58.596 56.2184 58.3135 56.0406 57.8037 55.7323C57.7721 55.7126 57.7662 55.6889 57.786 55.6612L58.3787 54.7781C58.3984 54.7465 58.432 54.7386 58.4794 54.7544C58.7442 54.8453 58.9872 54.9776 59.2085 55.1515L59.6411 54.5054ZM62.0831 60.8297C62.17 60.4345 62.3577 60.0058 62.6462 59.5435C62.9386 59.0772 63.2152 58.771 63.476 58.6248C63.7407 58.4746 64.0114 58.4509 64.288 58.5536C65.5485 59.012 66.5284 59.2768 67.2278 59.3479C67.2674 59.3518 67.6526 59.3538 68.3836 59.3538C68.4785 59.3538 68.5081 59.4091 68.4725 59.5198L68.2177 60.2725C68.194 60.3436 68.1209 60.3772 67.9984 60.3733C67.3938 60.3456 66.9275 60.3832 66.5996 60.4859C66.643 60.6716 66.7201 60.7882 66.8307 60.8356C67.218 61.0015 67.8127 61.0272 68.6148 60.9126C68.8716 60.8771 68.9329 61.1517 68.7985 61.7365C68.759 61.9064 68.6978 61.9973 68.6148 62.0092C67.2437 62.2225 66.4198 62.0882 66.1432 61.6061C66.0602 61.4678 66.074 61.1379 66.1847 60.6163C66.0306 60.6756 65.6907 60.8257 65.1652 61.0667C64.6397 61.3038 64.2149 61.4876 63.8909 61.618C63.231 61.8788 62.6422 62.0092 62.1246 62.0092C61.9468 61.6417 61.933 61.2485 62.0831 60.8297ZM65.0644 60.1184C64.2109 59.7549 63.6064 59.6363 63.2508 59.7628C62.8951 59.8853 62.5909 60.2389 62.338 60.8237C62.3696 60.8632 62.4407 60.881 62.5514 60.8771C63.1717 60.8455 64.0094 60.5926 65.0644 60.1184ZM71.5843 60.9126C71.7186 60.9443 71.7937 60.9917 71.8095 61.0549C71.8253 61.1181 71.8253 61.2129 71.8095 61.3394C71.7502 61.7859 71.6752 62.0092 71.5843 62.0092C71.1496 62.0131 70.711 61.7681 70.2685 61.2742C69.9089 61.7128 69.3596 61.9578 68.6207 62.0092C68.5456 62.0131 68.4943 61.9519 68.4666 61.8254L68.3599 61.3216C68.3402 61.2386 68.3579 61.1517 68.4133 61.0608C68.4646 60.9699 68.5338 60.9205 68.6207 60.9126C69.5216 60.8455 70.1223 60.5807 70.4226 60.1184C70.466 60.0512 70.5213 60.0176 70.5885 60.0176C70.6557 60.0176 70.6913 60.0552 70.6952 60.1303C70.7031 60.2053 70.713 60.2547 70.7248 60.2784C70.9896 60.642 71.2761 60.8534 71.5843 60.9126ZM70.6596 62.7856C70.6794 62.754 70.713 62.7461 70.7604 62.7619C71.0805 62.8725 71.3669 63.0405 71.6198 63.2657C71.6554 63.2973 71.6613 63.3329 71.6376 63.3724L71.0568 64.2911C71.0331 64.3267 70.9935 64.3207 70.9382 64.2733C70.8869 64.2298 70.6577 64.0856 70.2507 63.8406L69.7943 64.5637C69.7706 64.5993 69.7291 64.5934 69.6698 64.546C69.6145 64.4985 69.332 64.3207 68.8222 64.0125C68.7906 63.9928 68.7847 63.9691 68.8045 63.9414L69.3972 63.0583C69.4169 63.0266 69.4505 63.0187 69.4979 63.0345C69.7627 63.1254 70.0057 63.2578 70.227 63.4317L70.6596 62.7856ZM78.8509 59.6739C78.2424 59.0654 77.4067 59.1128 76.3437 59.8161C75.8143 60.1678 75.4152 60.5432 75.1465 60.9423C75.7589 60.966 76.4919 60.8474 77.3454 60.5866C77.8947 60.4167 78.3985 60.1579 78.8568 59.8102C78.9082 59.7707 78.9062 59.7252 78.8509 59.6739ZM74.4293 61.8788C74.3028 62.2383 74.2258 62.4991 74.1981 62.6611C74.1744 62.8271 74.1211 62.9298 74.0381 62.9693C73.9591 63.0089 73.886 63.0029 73.8188 62.9516C73.6924 62.8528 73.7536 62.4478 74.0025 61.7365C73.7496 61.6614 73.5402 61.5666 73.3743 61.452C73.2083 61.3335 73.0443 61.1695 72.8823 60.9601C72.4516 61.6199 72.0189 61.9696 71.5843 62.0092C71.4894 62.0171 71.4203 61.9499 71.3768 61.8076C71.282 61.5113 71.2879 61.2604 71.3946 61.0549C71.4499 60.9482 71.5131 60.9008 71.5843 60.9126C71.9557 60.9759 72.3884 60.7072 72.8823 60.1066C72.9416 60.0354 72.9989 60.0117 73.0542 60.0354C73.1095 60.0552 73.1787 60.1105 73.2616 60.2014C73.6291 60.6084 74.0717 60.8316 74.5893 60.8711C75.0556 60.1678 75.6404 59.5375 76.3437 58.9804C77.051 58.4193 77.6339 58.0854 78.0922 57.9787C78.4123 57.9115 78.7541 57.9906 79.1176 58.2158C79.4851 58.4371 79.7044 58.6959 79.7755 58.9923C79.6333 59.66 79.4021 60.2053 79.0821 60.6281C79.5641 60.802 79.9869 60.8968 80.3505 60.9126C80.4256 60.9166 80.471 61.0174 80.4868 61.2149C80.5342 61.7326 80.4888 61.9973 80.3505 62.0092C79.7222 62.0724 78.9398 61.8669 78.0033 61.3927C76.8219 61.9854 75.6305 62.1475 74.4293 61.8788ZM81.0795 59.4427L81.4233 58.69C81.4944 58.5359 81.5695 58.5339 81.6485 58.684C81.9686 59.2728 82.0278 59.9841 81.8263 60.8178C81.6327 61.612 81.1427 62.0092 80.3564 62.0092C80.2695 62.0092 80.1845 61.8037 80.1015 61.3927C80.0383 61.0648 80.1233 60.9047 80.3564 60.9126C80.8345 60.9324 81.1941 60.804 81.4351 60.5274C81.447 60.5116 81.449 60.4839 81.4411 60.4444C81.3936 60.2113 81.285 59.9762 81.1151 59.7391C81.0439 59.6403 81.0321 59.5415 81.0795 59.4427ZM81.1981 55.9635C81.2178 55.9319 81.2514 55.924 81.2988 55.9398C81.6189 56.0504 81.9054 56.2184 82.1582 56.4436C82.1938 56.4752 82.1997 56.5108 82.176 56.5503L81.5952 57.469C81.5715 57.5045 81.53 57.4986 81.4707 57.4512C81.4154 57.4038 81.1329 57.226 80.6231 56.9178C80.5915 56.898 80.5856 56.8743 80.6053 56.8466L81.1981 55.9635Z" fill="#4A90E2"/>
<path d="M101.077 66.3039H108.788M93.3159 41.0276L98.7857 35.5578M97.5202 87.729L102.99 93.1946M70.2511 26.2495V32.4845M41.8301 35.5536L47.262 41.0276M37.6258 93.1946L43.0577 87.729M39.4252 66.3039H31.7188" stroke="#4A90E2" stroke-width="2.1875" stroke-linecap="round" stroke-linejoin="round"/>
</svg>
