<svg width="40" height="40" viewBox="0 0 40 40" fill="none" xmlns="http://www.w3.org/2000/svg">
<rect width="40" height="40" rx="20" fill="#72C2FF" fill-opacity="0.1"/>
<path d="M21.0389 30.78C20.9051 31.2014 20.5086 31.5095 20.0448 31.5095C19.581 31.5094 19.1843 31.2014 19.0506 30.78H21.0389Z" stroke="#72C2FF" stroke-width="0.625"/>
<path d="M20.0447 11.8131C23.6367 11.8131 26.5066 14.3854 26.5066 17.4616C26.5066 18.258 26.2399 19.0892 25.822 19.9498C25.4042 20.8103 24.8476 21.6751 24.2869 22.5416L24.2859 22.5436C23.4002 23.9354 22.4999 25.3303 22.1628 26.7682H17.8933C17.6455 25.711 17.0938 24.6766 16.4666 23.65L15.7703 22.5436C15.2258 21.6759 14.6783 20.8117 14.2644 19.9508C13.8503 19.0894 13.5837 18.2581 13.5837 17.4616C13.5838 14.3855 16.4529 11.8133 20.0447 11.8131Z" stroke="#72C2FF" stroke-width="0.625"/>
<path d="M18.206 22.3115C18.2389 22.5086 18.3046 22.7056 18.3374 22.9027C18.4359 23.2639 18.5016 23.5924 18.6002 23.9536C18.8957 25.2017 19.1585 26.2526 19.3884 27.0737H19.5854C19.4212 26.2526 19.1913 25.1688 18.8957 23.9208C18.8301 23.5924 18.7315 23.2311 18.6658 22.8698C18.633 22.7056 18.6002 22.5086 18.5345 22.3443C18.7972 22.2787 19.4212 22.0816 20.0452 21.3919C20.6693 22.0816 21.2933 22.2787 21.556 22.3443C21.5232 22.5414 21.4903 22.7056 21.4246 22.8698C21.359 23.2311 21.2604 23.5924 21.1947 23.9208C20.8992 25.1688 20.6693 26.2526 20.505 27.0737H20.7021C20.8992 26.2526 21.1947 25.2017 21.4903 23.9536C21.556 23.6252 21.6545 23.2639 21.7531 22.9027C21.7859 22.7056 21.8516 22.5086 21.8844 22.3115C22.1472 22.2787 22.3771 22.213 22.5413 22.0488C22.7384 21.8517 22.8369 21.6218 22.7712 21.3591C22.7384 21.2277 22.6727 21.0635 22.4756 21.0306C22.3771 20.9978 22.3114 20.9978 22.2129 21.0306C22.1143 21.0635 22.0487 21.1292 22.0158 21.162C21.8516 21.3591 21.7859 21.5561 21.7202 21.7532L21.6217 22.0488C21.6217 22.0488 21.359 22.0816 20.7349 21.6546C20.4065 21.4247 20.308 21.2605 20.2095 21.162C20.308 21.0306 20.4065 20.9321 20.505 20.7679C20.5379 20.6694 20.5707 20.6037 20.6036 20.4723C20.6036 20.3738 20.6036 20.2424 20.5379 20.1439C20.4722 20.0453 20.4065 19.9468 20.2423 19.8811C20.1766 19.8483 20.1109 19.8483 20.0452 19.8483C19.9796 19.8483 19.9139 19.8483 19.8482 19.8811C19.7168 19.9468 19.6183 20.0453 19.5526 20.1439C19.4869 20.2424 19.4869 20.3738 19.4869 20.4723C19.4869 20.5708 19.5198 20.6694 19.5854 20.7679C19.6511 20.9321 19.7497 21.0635 19.881 21.162C19.7825 21.2605 19.684 21.4247 19.3555 21.6546C18.7644 22.0488 18.4688 22.0488 18.4688 22.0488L18.3703 21.7532C18.3046 21.5561 18.2389 21.3591 18.0747 21.162C18.0418 21.1292 17.9761 21.0635 17.8776 21.0306C17.7791 20.9978 17.6806 20.9978 17.6149 21.0306C17.4178 21.0963 17.3521 21.2605 17.3193 21.3591C17.2864 21.6218 17.385 21.8517 17.5492 22.0488C17.7462 22.213 17.9761 22.2787 18.206 22.3115ZM22.0158 21.8189C22.0815 21.6546 22.1472 21.4576 22.2786 21.3591C22.3114 21.3262 22.3442 21.3262 22.3442 21.3262H22.4099C22.4428 21.3262 22.4756 21.3591 22.5085 21.4576C22.5413 21.589 22.4756 21.786 22.3442 21.8845C22.2457 21.9502 22.1143 22.0159 21.983 22.0488C21.983 21.9502 21.983 21.8845 22.0158 21.8189ZM19.8482 20.2424C19.9139 20.1767 19.9796 20.111 20.0452 20.111C20.1109 20.111 20.1766 20.1439 20.2423 20.2424C20.308 20.3409 20.2751 20.4723 20.2095 20.6037C20.1766 20.7022 20.1109 20.8007 20.0452 20.8664C19.9796 20.7679 19.9139 20.7022 19.881 20.6037C19.8153 20.5051 19.7825 20.3738 19.8482 20.2424ZM17.6149 21.3919C17.6149 21.3262 17.6477 21.2934 17.7134 21.2605H17.7791C17.7791 21.2605 17.8119 21.2934 17.8448 21.2934C17.9433 21.3919 18.0418 21.589 18.1075 21.7532C18.1404 21.8189 18.1404 21.8845 18.1732 21.9502C18.0418 21.9174 17.9105 21.8845 17.8119 21.786C17.6806 21.7203 17.6149 21.5561 17.6149 21.3919Z" fill="#72C2FF"/>
<mask id="path-5-inside-1_106_2805" fill="white">
<path d="M17.6403 27.7578H22.4836V28.3675H17.6403V27.7578ZM17.979 28.9771H22.1449V29.5868H17.979V28.9771Z"/>
</mask>
<path d="M17.6403 27.7578V27.1328H17.0153V27.7578H17.6403ZM22.4836 27.7578H23.1086V27.1328H22.4836V27.7578ZM22.4836 28.3675V28.9925H23.1086V28.3675H22.4836ZM17.6403 28.3675H17.0153V28.9925H17.6403V28.3675ZM17.979 28.9771V28.3521H17.354V28.9771H17.979ZM22.1449 28.9771H22.7699V28.3521H22.1449V28.9771ZM22.1449 29.5868V30.2118H22.7699V29.5868H22.1449ZM17.979 29.5868H17.354V30.2118H17.979V29.5868ZM17.6403 27.7578V28.3828H22.4836V27.7578V27.1328H17.6403V27.7578ZM22.4836 27.7578H21.8586V28.3675H22.4836H23.1086V27.7578H22.4836ZM22.4836 28.3675V27.7425H17.6403V28.3675V28.9925H22.4836V28.3675ZM17.6403 28.3675H18.2653V27.7578H17.6403H17.0153V28.3675H17.6403ZM17.979 28.9771V29.6021H22.1449V28.9771V28.3521H17.979V28.9771ZM22.1449 28.9771H21.5199V29.5868H22.1449H22.7699V28.9771H22.1449ZM22.1449 29.5868V28.9618H17.979V29.5868V30.2118H22.1449V29.5868ZM17.979 29.5868H18.604V28.9771H17.979H17.354V29.5868H17.979Z" fill="#72C2FF" mask="url(#path-5-inside-1_106_2805)"/>
<mask id="path-7-inside-2_106_2805" fill="white">
<path d="M17.9791 28.3676H22.145V28.9772H17.9791V28.3676Z"/>
</mask>
<path d="M17.9791 28.3676V27.7426H17.3541V28.3676H17.9791ZM22.145 28.3676H22.77V27.7426H22.145V28.3676ZM22.145 28.9772V29.6022H22.77V28.9772H22.145ZM17.9791 28.9772H17.3541V29.6022H17.9791V28.9772ZM17.9791 28.3676V28.9926H22.145V28.3676V27.7426H17.9791V28.3676ZM22.145 28.3676H21.52V28.9772H22.145H22.77V28.3676H22.145ZM22.145 28.9772V28.3522H17.9791V28.9772V29.6022H22.145V28.9772ZM17.9791 28.9772H18.6041V28.3676H17.9791H17.3541V28.9772H17.9791Z" fill="#72C2FF" mask="url(#path-7-inside-2_106_2805)"/>
<mask id="path-9-inside-3_106_2805" fill="white">
<path d="M18.3175 29.6206H21.8061V30.2303H18.3175V29.6206Z"/>
</mask>
<path d="M18.3175 29.6206V28.9956H17.6925V29.6206H18.3175ZM21.8061 29.6206H22.4311V28.9956H21.8061V29.6206ZM21.8061 30.2303V30.8553H22.4311V30.2303H21.8061ZM18.3175 30.2303H17.6925V30.8553H18.3175V30.2303ZM18.3175 29.6206V30.2456H21.8061V29.6206V28.9956H18.3175V29.6206ZM21.8061 29.6206H21.1811V30.2303H21.8061H22.4311V29.6206H21.8061ZM21.8061 30.2303V29.6053H18.3175V30.2303V30.8553H21.8061V30.2303ZM18.3175 30.2303H18.9425V29.6206H18.3175H17.6925V30.2303H18.3175Z" fill="#72C2FF" mask="url(#path-9-inside-3_106_2805)"/>
<path d="M17.3214 16.4785C17.3531 16.4356 17.3717 16.4458 17.3773 16.509C17.3807 16.553 17.3971 16.6896 17.4264 16.9188C17.4558 17.1469 17.4727 17.2818 17.4772 17.3236C17.4953 17.5087 17.5348 17.6205 17.5958 17.6589C17.6319 17.6814 17.6827 17.6916 17.7482 17.6893C17.7888 17.6882 17.812 17.7125 17.8176 17.7622C17.8244 17.8118 17.8199 17.8638 17.8041 17.918C17.7883 17.9722 17.7696 18.0004 17.7482 18.0026C17.6161 18.0139 17.519 17.9812 17.4569 17.9044C17.396 17.8276 17.3531 17.6899 17.3282 17.4912C17.2616 17.6165 17.1944 17.6927 17.1267 17.7198C17.0804 17.7379 17.0098 17.739 16.915 17.7232C16.8213 17.7063 16.753 17.6809 16.7101 17.647C16.6672 17.6131 16.6491 17.5725 16.6559 17.5251C16.6627 17.4765 16.6847 17.4139 16.722 17.3371C16.7592 17.2592 16.7891 17.209 16.8117 17.1864C16.9348 17.0701 17.0804 16.9662 17.2486 16.8748C17.2418 16.78 17.2379 16.71 17.2368 16.6648C17.2368 16.6185 17.2475 16.5807 17.2689 16.5513L17.3214 16.4785ZM17.2723 17.0865C17.0928 17.1373 16.9636 17.2152 16.8845 17.3202C16.8744 17.3349 16.8772 17.3467 16.893 17.3557C16.9878 17.402 17.1131 17.4082 17.2689 17.3744C17.2825 17.371 17.2955 17.3631 17.3079 17.3507C17.3 17.2773 17.2881 17.1892 17.2723 17.0865ZM17.0403 15.8587C17.046 15.8497 17.0556 15.8474 17.0691 15.8519C17.1606 15.8836 17.2424 15.9315 17.3147 15.9959C17.3248 16.0049 17.3265 16.0151 17.3197 16.0264L17.1538 16.2889C17.147 16.299 17.1357 16.2973 17.1199 16.2838C17.1052 16.2714 17.0398 16.2302 16.9235 16.1602L16.7931 16.3668C16.7863 16.3769 16.7745 16.3752 16.7575 16.3617C16.7417 16.3481 16.661 16.2973 16.5154 16.2093C16.5063 16.2036 16.5046 16.1968 16.5103 16.1889L16.6796 15.9366C16.6853 15.9276 16.6949 15.9253 16.7084 15.9298C16.784 15.9558 16.8535 15.9936 16.9167 16.0433L17.0403 15.8587ZM17.738 17.6656C17.7629 17.5527 17.8165 17.4302 17.8989 17.2982C17.9825 17.1649 18.0615 17.0774 18.136 17.0357C18.2116 16.9928 18.289 16.986 18.368 17.0154C18.7281 17.1463 19.0081 17.222 19.208 17.2423C19.2192 17.2434 19.3293 17.244 19.5382 17.244C19.5653 17.244 19.5737 17.2598 19.5636 17.2914L19.4908 17.5065C19.484 17.5268 19.4631 17.5364 19.4281 17.5352C19.2554 17.5273 19.1222 17.5381 19.0284 17.5674C19.0409 17.6205 19.0629 17.6538 19.0945 17.6673C19.2051 17.7148 19.375 17.7221 19.6042 17.6893C19.6776 17.6792 19.6951 17.7577 19.6567 17.9247C19.6454 17.9733 19.6279 17.9993 19.6042 18.0026C19.2125 18.0636 18.9771 18.0252 18.8981 17.8875C18.8743 17.848 18.8783 17.7537 18.9099 17.6047C18.8659 17.6216 18.7688 17.6645 18.6186 17.7334C18.4685 17.8011 18.3471 17.8536 18.2545 17.8909C18.066 17.9654 17.8978 18.0026 17.7499 18.0026C17.6991 17.8976 17.6951 17.7853 17.738 17.6656ZM18.5898 17.4624C18.346 17.3586 18.1733 17.3247 18.0716 17.3608C17.97 17.3958 17.8831 17.4969 17.8109 17.6639C17.8199 17.6752 17.8402 17.6803 17.8718 17.6792C18.0491 17.6702 18.2884 17.5979 18.5898 17.4624ZM20.4526 17.6893C20.491 17.6984 20.5125 17.7119 20.517 17.73C20.5215 17.7481 20.5215 17.7752 20.517 17.8113C20.5001 17.9389 20.4786 18.0026 20.4526 18.0026C20.3285 18.0038 20.2031 17.9338 20.0767 17.7927C19.974 17.918 19.817 17.988 19.6059 18.0026C19.5845 18.0038 19.5698 17.9863 19.5619 17.9501L19.5314 17.8062C19.5258 17.7825 19.5308 17.7577 19.5466 17.7317C19.5613 17.7057 19.5811 17.6916 19.6059 17.6893C19.8633 17.6702 20.0349 17.5945 20.1207 17.4624C20.1332 17.4432 20.149 17.4336 20.1681 17.4336C20.1873 17.4336 20.1975 17.4444 20.1986 17.4658C20.2009 17.4873 20.2037 17.5014 20.2071 17.5081C20.2827 17.612 20.3646 17.6724 20.4526 17.6893ZM20.1885 18.2245C20.1941 18.2155 20.2037 18.2132 20.2173 18.2177C20.3087 18.2493 20.3906 18.2973 20.4628 18.3617C20.473 18.3707 20.4747 18.3808 20.4679 18.3921L20.3019 18.6546C20.2952 18.6648 20.2839 18.6631 20.2681 18.6495C20.2534 18.6371 20.1879 18.5959 20.0716 18.5259L19.9412 18.7325C19.9345 18.7427 19.9226 18.741 19.9057 18.7274C19.8899 18.7139 19.8091 18.6631 19.6635 18.575C19.6545 18.5694 19.6528 18.5626 19.6584 18.5547L19.8278 18.3024C19.8334 18.2934 19.843 18.2911 19.8566 18.2956C19.9322 18.3216 20.0016 18.3594 20.0648 18.4091L20.1885 18.2245ZM22.5288 17.3354C22.355 17.1616 22.1162 17.1751 21.8125 17.3761C21.6612 17.4765 21.5472 17.5838 21.4704 17.6978C21.6454 17.7046 21.8548 17.6707 22.0987 17.5962C22.2556 17.5477 22.3996 17.4737 22.5305 17.3744C22.5452 17.3631 22.5446 17.3501 22.5288 17.3354ZM21.2655 17.9654C21.2294 18.0681 21.2074 18.1426 21.1995 18.1889C21.1927 18.2363 21.1775 18.2657 21.1537 18.277C21.1312 18.2883 21.1103 18.2866 21.0911 18.2719C21.055 18.2437 21.0725 18.128 21.1436 17.9247C21.0713 17.9033 21.0115 17.8762 20.9641 17.8435C20.9167 17.8096 20.8698 17.7627 20.8235 17.7029C20.7005 17.8914 20.5768 17.9914 20.4526 18.0026C20.4256 18.0049 20.4058 17.9857 20.3934 17.9451C20.3663 17.8604 20.368 17.7887 20.3985 17.73C20.4143 17.6995 20.4323 17.686 20.4526 17.6893C20.5588 17.7074 20.6824 17.6306 20.8235 17.459C20.8405 17.4387 20.8568 17.4319 20.8726 17.4387C20.8884 17.4444 20.9082 17.4602 20.9319 17.4861C21.0369 17.6024 21.1633 17.6662 21.3112 17.6775C21.4445 17.4765 21.6115 17.2965 21.8125 17.1373C22.0146 16.977 22.1811 16.8816 22.3121 16.8511C22.4035 16.8319 22.5012 16.8545 22.605 16.9188C22.71 16.982 22.7727 17.056 22.793 17.1407C22.7524 17.3315 22.6863 17.4873 22.5949 17.6081C22.7326 17.6577 22.8534 17.6848 22.9573 17.6893C22.9787 17.6905 22.9917 17.7193 22.9962 17.7757C23.0098 17.9236 22.9968 17.9993 22.9573 18.0026C22.7778 18.0207 22.5542 17.962 22.2867 17.8265C21.9491 17.9959 21.6087 18.0422 21.2655 17.9654ZM23.1656 17.2694L23.2638 17.0543C23.2841 17.0103 23.3056 17.0097 23.3281 17.0526C23.4196 17.2208 23.4365 17.424 23.379 17.6623C23.3236 17.8892 23.1836 18.0026 22.959 18.0026C22.9341 18.0026 22.9099 17.9439 22.8862 17.8265C22.8681 17.7328 22.8924 17.6871 22.959 17.6893C23.0956 17.695 23.1983 17.6583 23.2672 17.5793C23.2706 17.5748 23.2711 17.5669 23.2689 17.5556C23.2553 17.489 23.2243 17.4218 23.1757 17.354C23.1554 17.3258 23.152 17.2976 23.1656 17.2694ZM23.1994 16.2753C23.2051 16.2663 23.2147 16.264 23.2282 16.2685C23.3197 16.3001 23.4015 16.3481 23.4738 16.4125C23.4839 16.4215 23.4856 16.4317 23.4789 16.443L23.3129 16.7054C23.3061 16.7156 23.2943 16.7139 23.2773 16.7004C23.2615 16.6868 23.1808 16.636 23.0352 16.548C23.0261 16.5423 23.0245 16.5355 23.0301 16.5276L23.1994 16.2753Z" fill="#72C2FF"/>
<path d="M28.8792 18.944H31.0822M26.6617 11.7222L28.2245 10.1594M27.8629 25.0654L29.4257 26.627M20.0718 7.49988V9.2813M11.9515 10.1582L13.5034 11.7222M10.7502 26.627L12.3022 25.0654M11.2644 18.944H9.0625" stroke="#72C2FF" stroke-width="0.625" stroke-linecap="round" stroke-linejoin="round"/>
</svg>
