<svg width="40" height="40" viewBox="0 0 40 40" fill="none" xmlns="http://www.w3.org/2000/svg">
<rect width="40" height="40" rx="20" fill="#005BD1" fill-opacity="0.05"/>
<path d="M21.0388 30.78C20.905 31.2015 20.5085 31.5095 20.0447 31.5095C19.5809 31.5094 19.1843 31.2015 19.0505 30.78H21.0388Z" stroke="#005BD1" stroke-width="0.625"/>
<path d="M20.0447 11.8132C23.6367 11.8132 26.5066 14.3855 26.5066 17.4617C26.5066 18.2581 26.2399 19.0893 25.822 19.95C25.4042 20.8104 24.8476 21.6752 24.2869 22.5417L24.2859 22.5437C23.4002 23.9355 22.4999 25.3305 22.1628 26.7683H17.8933C17.6455 25.7111 17.0938 24.6767 16.4666 23.6501L15.7703 22.5437C15.2258 21.676 14.6783 20.8119 14.2644 19.9509C13.8503 19.0896 13.5837 18.2582 13.5837 17.4617C13.5838 14.3856 16.4529 11.8134 20.0447 11.8132Z" stroke="#005BD1" stroke-width="0.625"/>
<path d="M18.206 22.3116C18.2389 22.5087 18.3046 22.7057 18.3374 22.9028C18.4359 23.264 18.5016 23.5925 18.6002 23.9537C18.8957 25.2018 19.1585 26.2527 19.3884 27.0738H19.5854C19.4212 26.2527 19.1913 25.1689 18.8957 23.9209C18.8301 23.5925 18.7315 23.2312 18.6658 22.8699C18.633 22.7057 18.6002 22.5087 18.5345 22.3444C18.7972 22.2788 19.4212 22.0817 20.0452 21.392C20.6693 22.0817 21.2933 22.2788 21.556 22.3444C21.5232 22.5415 21.4903 22.7057 21.4246 22.8699C21.359 23.2312 21.2604 23.5925 21.1947 23.9209C20.8992 25.1689 20.6693 26.2527 20.505 27.0738H20.7021C20.8992 26.2527 21.1947 25.2018 21.4903 23.9537C21.556 23.6253 21.6545 23.264 21.7531 22.9028C21.7859 22.7057 21.8516 22.5087 21.8844 22.3116C22.1472 22.2788 22.3771 22.2131 22.5413 22.0489C22.7384 21.8518 22.8369 21.6219 22.7712 21.3592C22.7384 21.2278 22.6727 21.0636 22.4756 21.0307C22.3771 20.9979 22.3114 20.9979 22.2129 21.0307C22.1143 21.0636 22.0487 21.1293 22.0158 21.1621C21.8516 21.3592 21.7859 21.5562 21.7202 21.7533L21.6217 22.0489C21.6217 22.0489 21.359 22.0817 20.7349 21.6547C20.4065 21.4248 20.308 21.2606 20.2095 21.1621C20.308 21.0307 20.4065 20.9322 20.505 20.768C20.5379 20.6695 20.5707 20.6038 20.6036 20.4724C20.6036 20.3739 20.6036 20.2425 20.5379 20.144C20.4722 20.0454 20.4065 19.9469 20.2423 19.8812C20.1766 19.8484 20.1109 19.8484 20.0452 19.8484C19.9796 19.8484 19.9139 19.8484 19.8482 19.8812C19.7168 19.9469 19.6183 20.0454 19.5526 20.144C19.4869 20.2425 19.4869 20.3739 19.4869 20.4724C19.4869 20.5709 19.5198 20.6695 19.5854 20.768C19.6511 20.9322 19.7497 21.0636 19.881 21.1621C19.7825 21.2606 19.684 21.4248 19.3555 21.6547C18.7644 22.0489 18.4688 22.0489 18.4688 22.0489L18.3703 21.7533C18.3046 21.5562 18.2389 21.3592 18.0747 21.1621C18.0418 21.1293 17.9761 21.0636 17.8776 21.0307C17.7791 20.9979 17.6806 20.9979 17.6149 21.0307C17.4178 21.0964 17.3521 21.2606 17.3193 21.3592C17.2864 21.6219 17.385 21.8518 17.5492 22.0489C17.7462 22.2131 17.9761 22.2788 18.206 22.3116ZM22.0158 21.819C22.0815 21.6547 22.1472 21.4577 22.2786 21.3592C22.3114 21.3263 22.3442 21.3263 22.3442 21.3263H22.4099C22.4428 21.3263 22.4756 21.3592 22.5085 21.4577C22.5413 21.5891 22.4756 21.7861 22.3442 21.8846C22.2457 21.9503 22.1143 22.016 21.983 22.0489C21.983 21.9503 21.983 21.8846 22.0158 21.819ZM19.8482 20.2425C19.9139 20.1768 19.9796 20.1111 20.0452 20.1111C20.1109 20.1111 20.1766 20.144 20.2423 20.2425C20.308 20.341 20.2751 20.4724 20.2095 20.6038C20.1766 20.7023 20.1109 20.8008 20.0452 20.8665C19.9796 20.768 19.9139 20.7023 19.881 20.6038C19.8153 20.5052 19.7825 20.3739 19.8482 20.2425ZM17.6149 21.392C17.6149 21.3263 17.6477 21.2935 17.7134 21.2606H17.7791C17.7791 21.2606 17.8119 21.2935 17.8448 21.2935C17.9433 21.392 18.0418 21.5891 18.1075 21.7533C18.1404 21.819 18.1404 21.8846 18.1732 21.9503C18.0418 21.9175 17.9105 21.8846 17.8119 21.7861C17.6806 21.7204 17.6149 21.5562 17.6149 21.392Z" fill="#005BD1"/>
<mask id="path-5-inside-1_200_1924" fill="white">
<path d="M17.6404 27.7578H22.4837V28.3675H17.6404V27.7578ZM17.9791 28.9771H22.145V29.5868H17.9791V28.9771Z"/>
</mask>
<path d="M17.6404 27.7578V27.1328H17.0154V27.7578H17.6404ZM22.4837 27.7578H23.1087V27.1328H22.4837V27.7578ZM22.4837 28.3675V28.9925H23.1087V28.3675H22.4837ZM17.6404 28.3675H17.0154V28.9925H17.6404V28.3675ZM17.9791 28.9771V28.3521H17.3541V28.9771H17.9791ZM22.145 28.9771H22.77V28.3521H22.145V28.9771ZM22.145 29.5868V30.2118H22.77V29.5868H22.145ZM17.9791 29.5868H17.3541V30.2118H17.9791V29.5868ZM17.6404 27.7578V28.3828H22.4837V27.7578V27.1328H17.6404V27.7578ZM22.4837 27.7578H21.8587V28.3675H22.4837H23.1087V27.7578H22.4837ZM22.4837 28.3675V27.7425H17.6404V28.3675V28.9925H22.4837V28.3675ZM17.6404 28.3675H18.2654V27.7578H17.6404H17.0154V28.3675H17.6404ZM17.9791 28.9771V29.6021H22.145V28.9771V28.3521H17.9791V28.9771ZM22.145 28.9771H21.52V29.5868H22.145H22.77V28.9771H22.145ZM22.145 29.5868V28.9618H17.9791V29.5868V30.2118H22.145V29.5868ZM17.9791 29.5868H18.6041V28.9771H17.9791H17.3541V29.5868H17.9791Z" fill="#005BD1" mask="url(#path-5-inside-1_200_1924)"/>
<mask id="path-7-inside-2_200_1924" fill="white">
<path d="M17.979 28.3677H22.1449V28.9773H17.979V28.3677Z"/>
</mask>
<path d="M17.979 28.3677V27.7427H17.354V28.3677H17.979ZM22.1449 28.3677H22.7699V27.7427H22.1449V28.3677ZM22.1449 28.9773V29.6023H22.7699V28.9773H22.1449ZM17.979 28.9773H17.354V29.6023H17.979V28.9773ZM17.979 28.3677V28.9927H22.1449V28.3677V27.7427H17.979V28.3677ZM22.1449 28.3677H21.5199V28.9773H22.1449H22.7699V28.3677H22.1449ZM22.1449 28.9773V28.3523H17.979V28.9773V29.6023H22.1449V28.9773ZM17.979 28.9773H18.604V28.3677H17.979H17.354V28.9773H17.979Z" fill="#005BD1" mask="url(#path-7-inside-2_200_1924)"/>
<mask id="path-9-inside-3_200_1924" fill="white">
<path d="M18.3176 29.6206H21.8062V30.2303H18.3176V29.6206Z"/>
</mask>
<path d="M18.3176 29.6206V28.9956H17.6926V29.6206H18.3176ZM21.8062 29.6206H22.4312V28.9956H21.8062V29.6206ZM21.8062 30.2303V30.8553H22.4312V30.2303H21.8062ZM18.3176 30.2303H17.6926V30.8553H18.3176V30.2303ZM18.3176 29.6206V30.2456H21.8062V29.6206V28.9956H18.3176V29.6206ZM21.8062 29.6206H21.1812V30.2303H21.8062H22.4312V29.6206H21.8062ZM21.8062 30.2303V29.6053H18.3176V30.2303V30.8553H21.8062V30.2303ZM18.3176 30.2303H18.9426V29.6206H18.3176H17.6926V30.2303H18.3176Z" fill="#005BD1" mask="url(#path-9-inside-3_200_1924)"/>
<path d="M17.3214 16.4786C17.3531 16.4357 17.3717 16.4458 17.3773 16.5091C17.3807 16.5531 17.3971 16.6897 17.4264 16.9189C17.4558 17.1469 17.4727 17.2818 17.4772 17.3236C17.4953 17.5088 17.5348 17.6205 17.5958 17.6589C17.6319 17.6815 17.6827 17.6917 17.7482 17.6894C17.7888 17.6883 17.812 17.7125 17.8176 17.7622C17.8244 17.8119 17.8199 17.8638 17.8041 17.918C17.7883 17.9722 17.7696 18.0004 17.7482 18.0027C17.6161 18.014 17.519 17.9812 17.4569 17.9045C17.396 17.8277 17.3531 17.69 17.3282 17.4913C17.2616 17.6166 17.1944 17.6928 17.1267 17.7199C17.0804 17.7379 17.0098 17.7391 16.915 17.7233C16.8213 17.7063 16.753 17.6809 16.7101 17.6471C16.6672 17.6132 16.6491 17.5725 16.6559 17.5251C16.6627 17.4766 16.6847 17.4139 16.722 17.3372C16.7592 17.2593 16.7891 17.209 16.8117 17.1864C16.9348 17.0702 17.0804 16.9663 17.2486 16.8748C17.2418 16.78 17.2379 16.71 17.2368 16.6649C17.2368 16.6186 17.2475 16.5807 17.2689 16.5514L17.3214 16.4786ZM17.2723 17.0865C17.0928 17.1373 16.9636 17.2152 16.8845 17.3202C16.8744 17.3349 16.8772 17.3468 16.893 17.3558C16.9878 17.4021 17.1131 17.4083 17.2689 17.3744C17.2825 17.371 17.2955 17.3631 17.3079 17.3507C17.3 17.2773 17.2881 17.1893 17.2723 17.0865ZM17.0403 15.8588C17.046 15.8497 17.0556 15.8475 17.0691 15.852C17.1606 15.8836 17.2424 15.9316 17.3147 15.9959C17.3248 16.005 17.3265 16.0151 17.3197 16.0264L17.1538 16.2889C17.147 16.2991 17.1357 16.2974 17.1199 16.2838C17.1052 16.2714 17.0398 16.2302 16.9235 16.1602L16.7931 16.3668C16.7863 16.377 16.7745 16.3753 16.7575 16.3617C16.7417 16.3482 16.661 16.2974 16.5154 16.2093C16.5063 16.2037 16.5046 16.1969 16.5103 16.189L16.6796 15.9367C16.6853 15.9276 16.6949 15.9254 16.7084 15.9299C16.784 15.9559 16.8535 15.9937 16.9167 16.0434L17.0403 15.8588ZM17.738 17.6657C17.7629 17.5528 17.8165 17.4303 17.8989 17.2982C17.9825 17.165 18.0615 17.0775 18.136 17.0357C18.2116 16.9928 18.289 16.986 18.368 17.0154C18.7281 17.1464 19.0081 17.222 19.208 17.2423C19.2192 17.2435 19.3293 17.244 19.5382 17.244C19.5653 17.244 19.5737 17.2598 19.5636 17.2914L19.4908 17.5065C19.484 17.5268 19.4631 17.5364 19.4281 17.5353C19.2554 17.5274 19.1222 17.5381 19.0284 17.5675C19.0409 17.6205 19.0629 17.6538 19.0945 17.6674C19.2051 17.7148 19.375 17.7221 19.6042 17.6894C19.6776 17.6792 19.6951 17.7577 19.6567 17.9248C19.6454 17.9733 19.6279 17.9993 19.6042 18.0027C19.2125 18.0637 18.9771 18.0253 18.8981 17.8875C18.8743 17.848 18.8783 17.7537 18.9099 17.6047C18.8659 17.6217 18.7688 17.6646 18.6186 17.7334C18.4685 17.8012 18.3471 17.8537 18.2545 17.8909C18.066 17.9654 17.8978 18.0027 17.7499 18.0027C17.6991 17.8977 17.6951 17.7854 17.738 17.6657ZM18.5898 17.4625C18.346 17.3586 18.1733 17.3247 18.0716 17.3609C17.97 17.3959 17.8831 17.4969 17.8109 17.664C17.8199 17.6753 17.8402 17.6804 17.8718 17.6792C18.0491 17.6702 18.2884 17.5979 18.5898 17.4625ZM20.4526 17.6894C20.491 17.6984 20.5125 17.712 20.517 17.73C20.5215 17.7481 20.5215 17.7752 20.517 17.8113C20.5001 17.9389 20.4786 18.0027 20.4526 18.0027C20.3285 18.0038 20.2031 17.9338 20.0767 17.7927C19.974 17.918 19.817 17.988 19.6059 18.0027C19.5845 18.0038 19.5698 17.9863 19.5619 17.9502L19.5314 17.8062C19.5258 17.7825 19.5308 17.7577 19.5466 17.7317C19.5613 17.7058 19.5811 17.6917 19.6059 17.6894C19.8633 17.6702 20.0349 17.5946 20.1207 17.4625C20.1332 17.4433 20.149 17.4337 20.1681 17.4337C20.1873 17.4337 20.1975 17.4444 20.1986 17.4659C20.2009 17.4873 20.2037 17.5014 20.2071 17.5082C20.2827 17.6121 20.3646 17.6725 20.4526 17.6894ZM20.1885 18.2245C20.1941 18.2155 20.2037 18.2132 20.2173 18.2178C20.3087 18.2494 20.3906 18.2973 20.4628 18.3617C20.473 18.3707 20.4747 18.3809 20.4679 18.3922L20.3019 18.6547C20.2952 18.6648 20.2839 18.6631 20.2681 18.6496C20.2534 18.6372 20.1879 18.596 20.0716 18.526L19.9412 18.7326C19.9345 18.7427 19.9226 18.741 19.9057 18.7275C19.8899 18.7139 19.8091 18.6631 19.6635 18.5751C19.6545 18.5694 19.6528 18.5627 19.6584 18.5548L19.8278 18.3024C19.8334 18.2934 19.843 18.2911 19.8566 18.2957C19.9322 18.3216 20.0016 18.3594 20.0648 18.4091L20.1885 18.2245ZM22.5288 17.3355C22.355 17.1616 22.1162 17.1751 21.8125 17.3761C21.6612 17.4766 21.5472 17.5838 21.4704 17.6979C21.6454 17.7046 21.8548 17.6708 22.0987 17.5963C22.2556 17.5477 22.3996 17.4738 22.5305 17.3744C22.5452 17.3631 22.5446 17.3501 22.5288 17.3355ZM21.2655 17.9654C21.2294 18.0682 21.2074 18.1427 21.1995 18.189C21.1927 18.2364 21.1775 18.2657 21.1537 18.277C21.1312 18.2883 21.1103 18.2866 21.0911 18.2719C21.055 18.2437 21.0725 18.128 21.1436 17.9248C21.0713 17.9033 21.0115 17.8762 20.9641 17.8435C20.9167 17.8096 20.8698 17.7628 20.8235 17.7029C20.7005 17.8915 20.5768 17.9914 20.4526 18.0027C20.4256 18.0049 20.4058 17.9858 20.3934 17.9451C20.3663 17.8604 20.368 17.7887 20.3985 17.73C20.4143 17.6996 20.4323 17.686 20.4526 17.6894C20.5588 17.7075 20.6824 17.6307 20.8235 17.4591C20.8405 17.4388 20.8568 17.432 20.8726 17.4388C20.8884 17.4444 20.9082 17.4602 20.9319 17.4862C21.0369 17.6025 21.1633 17.6663 21.3112 17.6775C21.4445 17.4766 21.6115 17.2965 21.8125 17.1373C22.0146 16.977 22.1811 16.8816 22.3121 16.8511C22.4035 16.8319 22.5012 16.8545 22.605 16.9189C22.71 16.9821 22.7727 17.056 22.793 17.1407C22.7524 17.3315 22.6863 17.4873 22.5949 17.6081C22.7326 17.6578 22.8534 17.6849 22.9573 17.6894C22.9787 17.6905 22.9917 17.7193 22.9962 17.7758C23.0098 17.9237 22.9968 17.9993 22.9573 18.0027C22.7778 18.0207 22.5542 17.962 22.2867 17.8266C21.9491 17.9959 21.6087 18.0422 21.2655 17.9654ZM23.1656 17.2694L23.2638 17.0543C23.2841 17.0103 23.3056 17.0098 23.3281 17.0527C23.4196 17.2209 23.4365 17.4241 23.379 17.6623C23.3236 17.8892 23.1836 18.0027 22.959 18.0027C22.9341 18.0027 22.9099 17.944 22.8862 17.8266C22.8681 17.7329 22.8924 17.6871 22.959 17.6894C23.0956 17.695 23.1983 17.6583 23.2672 17.5793C23.2706 17.5748 23.2711 17.5669 23.2689 17.5556C23.2553 17.489 23.2243 17.4218 23.1757 17.3541C23.1554 17.3259 23.152 17.2976 23.1656 17.2694ZM23.1994 16.2754C23.2051 16.2663 23.2147 16.2641 23.2282 16.2686C23.3197 16.3002 23.4015 16.3482 23.4738 16.4125C23.4839 16.4216 23.4856 16.4317 23.4789 16.443L23.3129 16.7055C23.3061 16.7157 23.2943 16.714 23.2773 16.7004C23.2615 16.6869 23.1808 16.6361 23.0352 16.548C23.0261 16.5424 23.0245 16.5356 23.0301 16.5277L23.1994 16.2754Z" fill="#005BD1"/>
<path d="M28.8792 18.9441H31.0822M26.6617 11.7223L28.2245 10.1595M27.8629 25.0656L29.4257 26.6272M20.0718 7.5V9.28142M11.9515 10.1583L13.5034 11.7223M10.7502 26.6272L12.3022 25.0656M11.2644 18.9441H9.0625" stroke="#005BD1" stroke-width="0.625" stroke-linecap="round" stroke-linejoin="round"/>
</svg>
