<svg width="10" height="10" viewBox="0 0 10 10" fill="none" xmlns="http://www.w3.org/2000/svg">
<path d="M5.00008 7.70842C6.49585 7.70842 7.70842 6.49585 7.70842 5.00008C7.70842 3.50431 6.49585 2.29175 5.00008 2.29175C3.50431 2.29175 2.29175 3.50431 2.29175 5.00008C2.29175 6.49585 3.50431 7.70842 5.00008 7.70842Z" stroke="#005BD1" stroke-width="0.625" stroke-linecap="round" stroke-linejoin="round"/>
<path d="M7.97492 7.97492L7.92075 7.92075M7.92075 2.07909L7.97492 2.02492L7.92075 2.07909ZM2.02492 7.97492L2.07909 7.92075L2.02492 7.97492ZM4.99992 0.866585V0.833252V0.866585ZM4.99992 9.16659V9.13325V9.16659ZM0.866585 4.99992H0.833252H0.866585ZM9.16659 4.99992H9.13325H9.16659ZM2.07909 2.07909L2.02492 2.02492L2.07909 2.07909Z" stroke="#005BD1" stroke-width="0.625" stroke-linecap="round" stroke-linejoin="round"/>
</svg>
