<svg width="32" height="32" viewBox="0 0 32 32" fill="none" xmlns="http://www.w3.org/2000/svg">
<path d="M8.88001 13.12C9.27001 13.12 9.58001 13.43 9.58001 13.82V15.4C9.58001 18.94 12.46 21.82 16 21.82C19.54 21.82 22.42 18.94 22.42 15.4V13.81C22.42 13.42 22.73 13.11 23.12 13.11C23.51 13.11 23.82 13.42 23.82 13.81V15.39C23.82 19.46 20.69 22.81 16.7 23.17V25.3C16.7 25.69 16.39 26 16 26C15.61 26 15.3 25.69 15.3 25.3V23.17C11.32 22.82 8.18001 19.46 8.18001 15.39V13.81C8.19001 13.43 8.50001 13.12 8.88001 13.12Z" fill="white"/>
<path d="M16 6C18.44 6 20.42 7.98 20.42 10.42V15.54C20.42 17.98 18.44 19.96 16 19.96C13.56 19.96 11.58 17.98 11.58 15.54V10.42C11.58 7.98 13.56 6 16 6ZM14.69 12.95C14.76 13.21 14.99 13.38 15.25 13.38C15.3 13.38 15.35 13.37 15.4 13.36C15.79 13.25 16.2 13.25 16.59 13.36C16.91 13.45 17.22 13.26 17.3 12.95C17.39 12.64 17.2 12.32 16.89 12.24C16.3 12.08 15.68 12.08 15.09 12.24C14.79 12.32 14.61 12.64 14.69 12.95ZM14.16 11.01C14.25 11.25 14.47 11.39 14.71 11.39C14.78 11.39 14.84 11.38 14.91 11.36C15.61 11.1 16.39 11.1 17.09 11.36C17.39 11.47 17.73 11.31 17.84 11.01C17.95 10.71 17.79 10.37 17.49 10.27C16.53 9.92 15.47 9.92 14.51 10.27C14.21 10.38 14.05 10.71 14.16 11.01Z" fill="white"/>
</svg>